# xmcd CD database file
#
# Track frame offsets:
#	150
#	14730
#	33528
#	52360
#	86792
#
# Disc length: 1356 seconds
#
# Revision: 0
# Processed by: cddbd v1.5.2PL0 Copyright (c) Steve Scherf et al.
# Submitted via: CDex 1.70beta2
#
DISCID=46054a05
DTITLE=ERA - Looking For Something(Single)
DYEAR=2003
DGENRE=New Age
TTITLE0=Looking For Something(Radio Edit)
TTITLE1=Looking For Something(Album Version)
TTITLE2=Looking For Something(Instrumental)
TTITLE3=Looking For Something(Darren Tate Mix)
TTITLE4=Looking For Something(Darren Tate Mix Edit)
EXTD=YEAR: 2003
EXTT0=
EXTT1=
EXTT2=
EXTT3=
EXTT4=
PLAYORDER=
